<svg width="25" height="21" viewBox="0 0 25 21" fill="none" xmlns="http://www.w3.org/2000/svg">
<path d="M2.5 21C1.8125 21 1.22396 20.743 0.734375 20.2289C0.244792 19.7148 0 19.0969 0 18.375V2.625C0 1.90312 0.244792 1.28516 0.734375 0.771094C1.22396 0.257031 1.8125 0 2.5 0H22.5C23.1875 0 23.776 0.257031 24.2656 0.771094C24.7552 1.28516 25 1.90312 25 2.625V18.375C25 19.0969 24.7552 19.7148 24.2656 20.2289C23.776 20.743 23.1875 21 22.5 21H2.5ZM12.5 11.8125L2.5 5.25V18.375H22.5V5.25L12.5 11.8125ZM12.5 9.1875L22.5 2.625H2.5L12.5 9.1875ZM2.5 5.25V2.625V18.375V5.25Z" fill="#149FA8"/>
</svg>
