<svg width="20" height="25" viewBox="0 0 20 25" fill="none" xmlns="http://www.w3.org/2000/svg">
<path d="M2.5 25C1.8125 25 1.22396 24.7669 0.734375 24.3006C0.244792 23.8343 0 23.2738 0 22.619V10.7143C0 10.0595 0.244792 9.49901 0.734375 9.03274C1.22396 8.56647 1.8125 8.33333 2.5 8.33333H3.75V5.95238C3.75 4.30556 4.35938 2.90179 5.57812 1.74107C6.79688 0.580357 8.27083 0 10 0C11.7292 0 13.2031 0.580357 14.4219 1.74107C15.6406 2.90179 16.25 4.30556 16.25 5.95238V8.33333H17.5C18.1875 8.33333 18.776 8.56647 19.2656 9.03274C19.7552 9.49901 20 10.0595 20 10.7143V22.619C20 23.2738 19.7552 23.8343 19.2656 24.3006C18.776 24.7669 18.1875 25 17.5 25H2.5ZM2.5 22.619H17.5V10.7143H2.5V22.619ZM10 19.0476C10.6875 19.0476 11.276 18.8145 11.7656 18.3482C12.2552 17.8819 12.5 17.3214 12.5 16.6667C12.5 16.0119 12.2552 15.4514 11.7656 14.9851C11.276 14.5188 10.6875 14.2857 10 14.2857C9.3125 14.2857 8.72396 14.5188 8.23438 14.9851C7.74479 15.4514 7.5 16.0119 7.5 16.6667C7.5 17.3214 7.74479 17.8819 8.23438 18.3482C8.72396 18.8145 9.3125 19.0476 10 19.0476ZM6.25 8.33333H13.75V5.95238C13.75 4.96032 13.3854 4.11706 12.6562 3.42262C11.9271 2.72817 11.0417 2.38095 10 2.38095C8.95833 2.38095 8.07292 2.72817 7.34375 3.42262C6.61458 4.11706 6.25 4.96032 6.25 5.95238V8.33333Z" fill="#149FA8"/>
</svg>
