<svg width="30" height="30" viewBox="0 0 30 30" fill="none" xmlns="http://www.w3.org/2000/svg">
<path d="M15 30C14.601 30 14.2207 29.9252 13.8591 29.7756C13.4975 29.6259 13.1671 29.414 12.8678 29.1397L0.860349 17.1322C0.586035 16.8329 0.374065 16.5025 0.224439 16.1409C0.074813 15.7793 0 15.399 0 15C0 14.601 0.074813 14.2145 0.224439 13.8404C0.374065 13.4663 0.586035 13.1421 0.860349 12.8678L12.8678 0.860349C13.1671 0.561097 13.4975 0.342893 13.8591 0.205736C14.2207 0.0685786 14.601 0 15 0C15.399 0 15.7855 0.0685786 16.1596 0.205736C16.5337 0.342893 16.8579 0.561097 17.1322 0.860349L29.1397 12.8678C29.4389 13.1421 29.6571 13.4663 29.7943 13.8404C29.9314 14.2145 30 14.601 30 15C30 15.399 29.9314 15.7793 29.7943 16.1409C29.6571 16.5025 29.4389 16.8329 29.1397 17.1322L17.1322 29.1397C16.8579 29.414 16.5337 29.6259 16.1596 29.7756C15.7855 29.9252 15.399 30 15 30ZM15 27.0075L27.0075 15L15 2.99252L2.99252 15L15 27.0075ZM13.5037 16.4963H16.4963V7.5187H13.5037V16.4963ZM15 20.985C15.4239 20.985 15.7793 20.8416 16.0661 20.5549C16.3529 20.2681 16.4963 19.9127 16.4963 19.4888C16.4963 19.0648 16.3529 18.7095 16.0661 18.4227C15.7793 18.1359 15.4239 17.9925 15 17.9925C14.5761 17.9925 14.2207 18.1359 13.9339 18.4227C13.6471 18.7095 13.5037 19.0648 13.5037 19.4888C13.5037 19.9127 13.6471 20.2681 13.9339 20.5549C14.2207 20.8416 14.5761 20.985 15 20.985Z" fill="white"/>
</svg>
