<svg width="25" height="20" viewBox="0 0 25 20" fill="none" xmlns="http://www.w3.org/2000/svg">
<path d="M0.989583 10.8421C0.677083 10.2105 0.434028 9.57018 0.260417 8.92105C0.0868056 8.27193 0 7.61404 0 6.94737C0 4.98246 0.659722 3.33333 1.97917 2C3.29861 0.666667 4.93056 0 6.875 0C7.96875 0 9.01042 0.232456 10 0.697368C10.9896 1.16228 11.8229 1.80702 12.5 2.63158C13.1771 1.80702 14.0104 1.16228 15 0.697368C15.9896 0.232456 17.0312 0 18.125 0C20.0694 0 21.7014 0.666667 23.0208 2C24.3403 3.33333 25 4.98246 25 6.94737C25 7.61404 24.9132 8.27193 24.7396 8.92105C24.566 9.57018 24.3229 10.2105 24.0104 10.8421C23.8194 10.5088 23.5938 10.2105 23.3333 9.94737C23.0729 9.68421 22.7691 9.47368 22.4219 9.31579C22.5781 8.91228 22.6997 8.51754 22.7865 8.13158C22.8733 7.74561 22.9167 7.35088 22.9167 6.94737C22.9167 5.57895 22.4566 4.42982 21.5365 3.5C20.6163 2.57018 19.4792 2.10526 18.125 2.10526C16.7188 2.10526 15.638 2.49561 14.8828 3.27632C14.1276 4.05702 13.3333 4.92982 12.5 5.89474C11.6667 4.91228 10.8724 4.03509 10.1172 3.26316C9.36198 2.49123 8.28125 2.10526 6.875 2.10526C5.52083 2.10526 4.38368 2.57018 3.46354 3.5C2.5434 4.42982 2.08333 5.57895 2.08333 6.94737C2.08333 7.35088 2.12674 7.74561 2.21354 8.13158C2.30035 8.51754 2.42188 8.91228 2.57812 9.31579C2.2309 9.47368 1.92708 9.68421 1.66667 9.94737C1.40625 10.2105 1.18056 10.5088 0.989583 10.8421ZM0 20V18.3421C0 17.5702 0.386285 16.9518 1.15885 16.4868C1.93142 16.0219 2.93403 15.7895 4.16667 15.7895C4.39236 15.7895 4.60938 15.7939 4.81771 15.8026C5.02604 15.8114 5.22569 15.8333 5.41667 15.8684C5.17361 16.2193 4.99132 16.5965 4.86979 17C4.74826 17.4035 4.6875 17.8333 4.6875 18.2895V20H0ZM6.25 20V18.2895C6.25 17.1491 6.82726 16.2281 7.98177 15.5263C9.13628 14.8246 10.6424 14.4737 12.5 14.4737C14.375 14.4737 15.8854 14.8246 17.0312 15.5263C18.1771 16.2281 18.75 17.1491 18.75 18.2895V20H6.25ZM20.3125 20V18.2895C20.3125 17.8333 20.2561 17.4035 20.1432 17C20.0304 16.5965 19.8611 16.2193 19.6354 15.8684C19.8264 15.8333 20.0217 15.8114 20.2214 15.8026C20.421 15.7939 20.625 15.7895 20.8333 15.7895C22.0833 15.7895 23.0903 16.0219 23.8542 16.4868C24.6181 16.9518 25 17.5702 25 18.3421V20H20.3125ZM12.5 16.5789C11.5104 16.5789 10.625 16.7105 9.84375 16.9737C9.0625 17.2368 8.60243 17.5439 8.46354 17.8947H16.5625C16.4062 17.5439 15.9418 17.2368 15.1693 16.9737C14.3967 16.7105 13.5069 16.5789 12.5 16.5789ZM4.16667 14.7368C3.59375 14.7368 3.1033 14.5307 2.69531 14.1184C2.28733 13.7061 2.08333 13.2105 2.08333 12.6316C2.08333 12.0351 2.28733 11.5351 2.69531 11.1316C3.1033 10.7281 3.59375 10.5263 4.16667 10.5263C4.75694 10.5263 5.25174 10.7281 5.65104 11.1316C6.05035 11.5351 6.25 12.0351 6.25 12.6316C6.25 13.2105 6.05035 13.7061 5.65104 14.1184C5.25174 14.5307 4.75694 14.7368 4.16667 14.7368ZM20.8333 14.7368C20.2604 14.7368 19.77 14.5307 19.362 14.1184C18.954 13.7061 18.75 13.2105 18.75 12.6316C18.75 12.0351 18.954 11.5351 19.362 11.1316C19.77 10.7281 20.2604 10.5263 20.8333 10.5263C21.4236 10.5263 21.9184 10.7281 22.3177 11.1316C22.717 11.5351 22.9167 12.0351 22.9167 12.6316C22.9167 13.2105 22.717 13.7061 22.3177 14.1184C21.9184 14.5307 21.4236 14.7368 20.8333 14.7368ZM12.5 13.6842C11.6319 13.6842 10.8941 13.3772 10.2865 12.7632C9.67882 12.1491 9.375 11.4035 9.375 10.5263C9.375 9.63158 9.67882 8.88158 10.2865 8.27632C10.8941 7.67105 11.6319 7.36842 12.5 7.36842C13.3854 7.36842 14.1276 7.67105 14.7266 8.27632C15.3255 8.88158 15.625 9.63158 15.625 10.5263C15.625 11.4035 15.3255 12.1491 14.7266 12.7632C14.1276 13.3772 13.3854 13.6842 12.5 13.6842ZM12.5 9.47368C12.2049 9.47368 11.9575 9.57456 11.7578 9.77632C11.5582 9.97807 11.4583 10.2281 11.4583 10.5263C11.4583 10.8246 11.5582 11.0746 11.7578 11.2763C11.9575 11.4781 12.2049 11.5789 12.5 11.5789C12.7951 11.5789 13.0425 11.4781 13.2422 11.2763C13.4418 11.0746 13.5417 10.8246 13.5417 10.5263C13.5417 10.2281 13.4418 9.97807 13.2422 9.77632C13.0425 9.57456 12.7951 9.47368 12.5 9.47368Z" fill="#149FA8"/>
</svg>
