<svg width="35" height="14" viewBox="0 0 35 14" fill="none" xmlns="http://www.w3.org/2000/svg">
<path d="M1.04013 6.50111C3.10387 4.47296 5.58499 2.91904 8.48348 1.83935C11.382 0.759669 14.468 0.234063 17.7415 0.262535C21.015 0.291009 24.0914 0.870215 26.9707 2.00016C29.8499 3.1301 32.3037 4.72694 34.3318 6.79068C34.6239 7.08786 34.7682 7.43286 34.7648 7.82569C34.7614 8.21851 34.6111 8.56095 34.3139 8.853L30.302 12.7957C30.0708 13.0229 29.7874 13.1473 29.4516 13.1689C29.1159 13.1905 28.826 13.1103 28.5821 12.9281L24.5309 10.0938C24.2383 9.86207 24.0275 9.63108 23.8985 9.40079C23.7696 9.17051 23.7063 8.92442 23.7085 8.66254L23.7256 3.87481C22.7951 3.58844 21.8229 3.38356 20.8091 3.26016C19.7953 3.13676 18.7564 3.07862 17.6924 3.08573C16.6776 3.07691 15.6745 3.12956 14.6832 3.24371C13.6919 3.35785 12.7041 3.54159 11.7198 3.79493L11.6796 8.41059C11.6771 8.70521 11.5926 9.0073 11.4262 9.31686C11.2598 9.62642 11.0448 9.87827 10.7813 10.0724L6.68224 12.7376C6.3862 12.8987 6.0787 12.9656 5.75975 12.9383C5.44079 12.911 5.17585 12.79 4.96492 12.5753L1.02219 8.56343C0.730137 8.26625 0.585818 7.92125 0.589236 7.52843C0.592651 7.1356 0.74295 6.79317 1.04013 6.50111ZM26.5164 4.8321L26.4882 8.07289L29.1969 9.98705L31.401 7.82098C30.6532 7.2252 29.8805 6.67012 29.0829 6.15575C28.2853 5.64138 27.4298 5.20016 26.5164 4.8321ZM8.93757 4.6792C8.01785 5.03132 7.14254 5.45339 6.31163 5.94541C5.48073 6.43743 4.70248 6.99129 3.9769 7.607L6.11863 9.78631L8.90895 7.96909L8.93757 4.6792Z" fill="#E8EAED"/>
</svg>
