<svg width="239" height="239" viewBox="0 0 239 239" fill="none" xmlns="http://www.w3.org/2000/svg">
<path d="M102.876 174.125L186.595 90.4062L169.97 73.7812L102.876 140.875L69.0322 107.031L52.4072 123.656L102.876 174.125ZM119.501 238.25C103.074 238.25 87.6364 235.133 73.1885 228.898C58.7406 222.664 46.1729 214.203 35.4854 203.516C24.7979 192.828 16.3369 180.26 10.1025 165.812C3.86816 151.365 0.750977 135.927 0.750977 119.5C0.750977 103.073 3.86816 87.6354 10.1025 73.1875C16.3369 58.7396 24.7979 46.1719 35.4854 35.4844C46.1729 24.7969 58.7406 16.3359 73.1885 10.1016C87.6364 3.86719 103.074 0.75 119.501 0.75C135.928 0.75 151.366 3.86719 165.813 10.1016C180.261 16.3359 192.829 24.7969 203.517 35.4844C214.204 46.1719 222.665 58.7396 228.899 73.1875C235.134 87.6354 238.251 103.073 238.251 119.5C238.251 135.927 235.134 151.365 228.899 165.812C222.665 180.26 214.204 192.828 203.517 203.516C192.829 214.203 180.261 222.664 165.813 228.898C151.366 235.133 135.928 238.25 119.501 238.25ZM119.501 214.5C146.022 214.5 168.485 205.297 186.892 186.891C205.298 168.484 214.501 146.021 214.501 119.5C214.501 92.9792 205.298 70.5156 186.892 52.1094C168.485 33.7031 146.022 24.5 119.501 24.5C92.9801 24.5 70.5166 33.7031 52.1104 52.1094C33.7041 70.5156 24.501 92.9792 24.501 119.5C24.501 146.021 33.7041 168.484 52.1104 186.891C70.5166 205.297 92.9801 214.5 119.501 214.5Z" fill="#06303E"/>
</svg>
