<svg width="20" height="25" viewBox="0 0 20 25" fill="none" xmlns="http://www.w3.org/2000/svg">
<path d="M10 15.7895C8.80952 15.7895 7.79762 15.4057 6.96429 14.6382C6.13095 13.8706 5.71429 12.9386 5.71429 11.8421V3.94737C5.71429 2.85088 6.13095 1.91886 6.96429 1.15132C7.79762 0.383772 8.80952 0 10 0C11.1905 0 12.2024 0.383772 13.0357 1.15132C13.869 1.91886 14.2857 2.85088 14.2857 3.94737V11.8421C14.2857 12.9386 13.869 13.8706 13.0357 14.6382C12.2024 15.4057 11.1905 15.7895 10 15.7895ZM8.57143 25V20.9539C6.09524 20.6469 4.04762 19.6272 2.42857 17.8947C0.809524 16.1623 0 14.1447 0 11.8421H2.85714C2.85714 13.6623 3.55357 15.2138 4.94643 16.4967C6.33929 17.7796 8.02381 18.4211 10 18.4211C11.9762 18.4211 13.6607 17.7796 15.0536 16.4967C16.4464 15.2138 17.1429 13.6623 17.1429 11.8421H20C20 14.1447 19.1905 16.1623 17.5714 17.8947C15.9524 19.6272 13.9048 20.6469 11.4286 20.9539V25H8.57143ZM10 13.1579C10.4048 13.1579 10.744 13.0318 11.0179 12.7796C11.2917 12.5274 11.4286 12.2149 11.4286 11.8421V3.94737C11.4286 3.57456 11.2917 3.26206 11.0179 3.00987C10.744 2.75768 10.4048 2.63158 10 2.63158C9.59524 2.63158 9.25595 2.75768 8.98214 3.00987C8.70833 3.26206 8.57143 3.57456 8.57143 3.94737V11.8421C8.57143 12.2149 8.70833 12.5274 8.98214 12.7796C9.25595 13.0318 9.59524 13.1579 10 13.1579Z" fill="#06303E"/>
</svg>
