<svg width="15" height="11" viewBox="0 0 15 11" fill="none" xmlns="http://www.w3.org/2000/svg">
<path d="M13.75 0H1.25C0.56875 0.0244444 0.025 0.556111 0 1.22222V9.77778C0.025 10.4439 0.56875 10.9756 1.25 11H13.75C14.4313 10.9756 14.975 10.4439 15 9.77778V1.22222C14.9885 0.901649 14.8531 0.597265 14.6211 0.370447C14.3892 0.143628 14.0779 0.0112478 13.75 0ZM13.75 9.77778H1.25V1.22222H13.75V9.77778ZM8.75 8.55556V7.79167C8.75 6.77722 6.6625 6.26389 5.625 6.26389C4.5875 6.26389 2.5 6.77722 2.5 7.79167V8.55556H8.75ZM5.625 2.44444C5.2106 2.44444 4.81317 2.60541 4.52015 2.89192C4.22712 3.17843 4.0625 3.56703 4.0625 3.97222C4.0625 4.17285 4.10291 4.37152 4.18144 4.55688C4.25996 4.74224 4.37505 4.91066 4.52015 5.05252C4.81317 5.33904 5.2106 5.5 5.625 5.5C5.83019 5.5 6.03337 5.46048 6.22294 5.38371C6.41251 5.30693 6.58476 5.19439 6.72985 5.05252C6.87495 4.91066 6.99004 4.74224 7.06856 4.55688C7.14709 4.37152 7.1875 4.17285 7.1875 3.97222C7.1875 3.77159 7.14709 3.57293 7.06856 3.38757C6.99004 3.20221 6.87495 3.03379 6.72985 2.89192C6.58476 2.75005 6.41251 2.63752 6.22294 2.56074C6.03337 2.48396 5.83019 2.44444 5.625 2.44444ZM8.75 2.44444V3.05556H12.5V2.44444H8.75ZM8.75 3.66667V4.27778H12.5V3.66667H8.75ZM8.75 4.88889V5.5H11.25V4.88889H8.75Z" fill="black"/>
</svg>
