<svg width="23" height="25" viewBox="0 0 23 25" fill="none" xmlns="http://www.w3.org/2000/svg">
<path d="M10.1583 20.4375L5.62222 16L7.475 14.1875L10.1583 16.8125L15.525 11.5625L17.3778 13.375L10.1583 20.4375ZM2.55556 25C1.85278 25 1.25116 24.7552 0.750695 24.2656C0.250231 23.776 0 23.1875 0 22.5V5C0 4.3125 0.250231 3.72396 0.750695 3.23438C1.25116 2.74479 1.85278 2.5 2.55556 2.5H3.83333V0H6.38889V2.5H16.6111V0H19.1667V2.5H20.4444C21.1472 2.5 21.7488 2.74479 22.2493 3.23438C22.7498 3.72396 23 4.3125 23 5V22.5C23 23.1875 22.7498 23.776 22.2493 24.2656C21.7488 24.7552 21.1472 25 20.4444 25H2.55556ZM2.55556 22.5H20.4444V10H2.55556V22.5ZM2.55556 7.5H20.4444V5H2.55556V7.5Z" fill="#149FA8"/>
</svg>
