<svg width="25" height="25" viewBox="0 0 25 25" fill="none" xmlns="http://www.w3.org/2000/svg">
<path d="M25 18.1338L20.3162 13.439V15.4049L17.9742 13.0575V4.63615H9.5726L7.23068 2.28873H17.9742C18.6183 2.28873 19.1696 2.51858 19.6282 2.97829C20.0868 3.43799 20.3162 3.99061 20.3162 4.63615V9.91784L25 5.223V18.1338ZM23.3021 25L0 1.64319L1.63934 0L24.9415 23.3568L23.3021 25ZM3.92272 2.28873L6.26464 4.63615H3.92272V18.7207H17.9742V16.3732L20.3162 18.7207C20.3162 19.3662 20.0868 19.9188 19.6282 20.3785C19.1696 20.8382 18.6183 21.0681 17.9742 21.0681H3.92272C3.27869 21.0681 2.72736 20.8382 2.26874 20.3785C1.81011 19.9188 1.5808 19.3662 1.5808 18.7207V4.63615C1.5808 3.99061 1.81011 3.43799 2.26874 2.97829C2.72736 2.51858 3.27869 2.28873 3.92272 2.28873Z" fill="#06303E"/>
</svg>
