<svg width="25" height="25" viewBox="0 0 25 25" fill="none" xmlns="http://www.w3.org/2000/svg">
<path d="M18.4211 22.2222L22.3684 18.0556L21.4474 17.0833L19.0789 19.5833V13.8889H17.7632V19.5833L15.3947 17.0833L14.4737 18.0556L18.4211 22.2222ZM0 22.2222V0L18.8158 8.33333H18.4211C17.6535 8.33333 16.9298 8.42593 16.25 8.61111C15.5702 8.7963 14.9123 9.05093 14.2763 9.375L2.63158 4.16667V9.02778L10.5263 11.1111L2.63158 13.1944V18.0556L9.73684 14.8611C9.5614 15.3935 9.42982 15.9201 9.34211 16.441C9.25439 16.9618 9.21053 17.5 9.21053 18.0556V18.125L0 22.2222ZM18.4211 25C16.6009 25 15.0493 24.3229 13.7664 22.9688C12.4836 21.6146 11.8421 19.9769 11.8421 18.0556C11.8421 16.1343 12.4836 14.4965 13.7664 13.1424C15.0493 11.7882 16.6009 11.1111 18.4211 11.1111C20.2412 11.1111 21.7928 11.7882 23.0757 13.1424C24.3586 14.4965 25 16.1343 25 18.0556C25 19.9769 24.3586 21.6146 23.0757 22.9688C21.7928 24.3229 20.2412 25 18.4211 25ZM2.63158 14.8611V4.16667V18.0556V14.8611Z" fill="#149FA8"/>
</svg>
