<svg width="45" height="25" viewBox="0 0 45 25" fill="none" xmlns="http://www.w3.org/2000/svg">
<path d="M0 25V21.7188C0 20.2257 0.6875 19.0104 2.0625 18.0729C3.4375 17.1354 5.25 16.6667 7.5 16.6667C7.90625 16.6667 8.29688 16.6753 8.67188 16.6927C9.04688 16.7101 9.40625 16.7535 9.75 16.8229C9.3125 17.5521 8.98438 18.316 8.76562 19.1146C8.54688 19.9132 8.4375 20.7465 8.4375 21.6146V25H0ZM11.25 25V21.6146C11.25 20.5035 11.5234 19.4878 12.0703 18.5677C12.6172 17.6476 13.3906 16.8403 14.3906 16.1458C15.3906 15.4514 16.5859 14.9306 17.9766 14.5833C19.3672 14.2361 20.875 14.0625 22.5 14.0625C24.1562 14.0625 25.6797 14.2361 27.0703 14.5833C28.4609 14.9306 29.6562 15.4514 30.6562 16.1458C31.6562 16.8403 32.4219 17.6476 32.9531 18.5677C33.4844 19.4878 33.75 20.5035 33.75 21.6146V25H11.25ZM36.5625 25V21.6146C36.5625 20.7118 36.4609 19.8611 36.2578 19.0625C36.0547 18.2639 35.75 17.5174 35.3438 16.8229C35.6875 16.7535 36.0391 16.7101 36.3984 16.6927C36.7578 16.6753 37.125 16.6667 37.5 16.6667C39.75 16.6667 41.5625 17.1267 42.9375 18.0469C44.3125 18.967 45 20.191 45 21.7188V25H36.5625ZM15.2344 20.8333H29.8125C29.5 20.1389 28.6328 19.5312 27.2109 19.0104C25.7891 18.4896 24.2188 18.2292 22.5 18.2292C20.7812 18.2292 19.2109 18.4896 17.7891 19.0104C16.3672 19.5312 15.5156 20.1389 15.2344 20.8333ZM7.5 14.5833C6.46875 14.5833 5.58594 14.1753 4.85156 13.3594C4.11719 12.5434 3.75 11.5625 3.75 10.4167C3.75 9.23611 4.11719 8.24653 4.85156 7.44792C5.58594 6.64931 6.46875 6.25 7.5 6.25C8.5625 6.25 9.45312 6.64931 10.1719 7.44792C10.8906 8.24653 11.25 9.23611 11.25 10.4167C11.25 11.5625 10.8906 12.5434 10.1719 13.3594C9.45312 14.1753 8.5625 14.5833 7.5 14.5833ZM37.5 14.5833C36.4688 14.5833 35.5859 14.1753 34.8516 13.3594C34.1172 12.5434 33.75 11.5625 33.75 10.4167C33.75 9.23611 34.1172 8.24653 34.8516 7.44792C35.5859 6.64931 36.4688 6.25 37.5 6.25C38.5625 6.25 39.4531 6.64931 40.1719 7.44792C40.8906 8.24653 41.25 9.23611 41.25 10.4167C41.25 11.5625 40.8906 12.5434 40.1719 13.3594C39.4531 14.1753 38.5625 14.5833 37.5 14.5833ZM22.5 12.5C20.9375 12.5 19.6094 11.8924 18.5156 10.6771C17.4219 9.46181 16.875 7.98611 16.875 6.25C16.875 4.47917 17.4219 2.99479 18.5156 1.79688C19.6094 0.598958 20.9375 0 22.5 0C24.0938 0 25.4297 0.598958 26.5078 1.79688C27.5859 2.99479 28.125 4.47917 28.125 6.25C28.125 7.98611 27.5859 9.46181 26.5078 10.6771C25.4297 11.8924 24.0938 12.5 22.5 12.5ZM22.5 8.33333C23.0312 8.33333 23.4766 8.13368 23.8359 7.73438C24.1953 7.33507 24.375 6.84028 24.375 6.25C24.375 5.65972 24.1953 5.16493 23.8359 4.76562C23.4766 4.36632 23.0312 4.16667 22.5 4.16667C21.9688 4.16667 21.5234 4.36632 21.1641 4.76562C20.8047 5.16493 20.625 5.65972 20.625 6.25C20.625 6.84028 20.8047 7.33507 21.1641 7.73438C21.5234 8.13368 21.9688 8.33333 22.5 8.33333Z" fill="white"/>
</svg>
